<?xml version="1.0" encoding="utf-8"?>
<!-- Generator: Adobe Illustrator 26.0.3, SVG Export Plug-In . SVG Version: 6.00 Build 0)  -->
<svg version="1.1" id="Layer_1" xmlns="http://www.w3.org/2000/svg" xmlns:xlink="http://www.w3.org/1999/xlink" x="0px" y="0px"
	 viewBox="0 0 27 28" style="enable-background:new 0 0 27 28;" xml:space="preserve">
<style type="text/css">
	.st0{fill:#FFFFFF;}
</style>
<path class="st0" d="M15.8,0.9L15.8,0.9c0.4,0,0.7,0.5,0.4,0.8c-0.2,0.3-0.6,0.4-0.9,0.7l10.5,6.2C25.9,8.4,25.9,8,26,7.8
	c0.2-0.3,0.7-0.3,0.9,0C27,7.9,27,8.2,27,8.4c-0.4,2-1.5,3.8-2.9,5.2c-0.4,0.4-0.8,0.7-1.3,0.9c-1.1,0.5-2.2,0.5-3.4,0.6
	c-3.2,0-6.4-0.6-9.5-0.9c1.6,1,3.2,2,4.7,3.1c-0.1-0.3-0.2-0.6-0.3-0.9c-0.1-0.2-0.1-0.4,0-0.6c0.1-0.3,0.4-0.4,0.7-0.2
	c0.2,0.1,0.3,0.4,0.4,0.6c0.6,1.4,0.9,3,0.9,4.5c0,1-0.1,2-0.4,2.9c-0.4,1.2-1.2,2.2-2.2,3c-0.6,0.5-1.2,0.9-1.9,1.3
	c-0.1,0.1-0.3,0.1-0.4,0c-0.3-0.1-0.4-0.4-0.4-0.6c0-0.2,0.3-0.3,0.4-0.4c0.5-0.2,0.9-0.5,1.4-0.9C8.8,23.9,5,21.8,1.2,19.7
	c0,0.3-0.1,0.7-0.1,1c0,0.2,0,0.4-0.2,0.6c-0.2,0.2-0.5,0.2-0.7-0.1C0,21.1,0,20.9,0,20.8v-0.1c0-1.3,0.3-2.7,0.8-3.9
	c0.4-1,1-1.9,1.8-2.7c0.6-0.5,1.4-0.8,2.1-1c1.3-0.3,2.7-0.2,4-0.2c1.3,0.1,2.6,0.2,3.9,0.4c-0.9-1.4-1.7-3-2.1-4.6
	c-0.2-1.2-0.2-2.4,0.3-3.5c0.4-1,1.2-1.8,2.1-2.5c0.7-0.6,1.5-1.2,2.4-1.7C15.5,1,15.6,1,15.8,0.9L15.8,0.9z M14.3,3.1
	c-0.3,0.2-0.6,0.5-0.9,0.7l11,7.5c0.4-0.5,0.7-1.1,0.9-1.7C21.7,7.5,18,5.3,14.3,3.1z M12.6,4.6c-0.2,0.3-0.5,0.6-0.6,0.9
	c3.5,2.6,6.9,5.3,10.4,7.9c0.6-0.2,1-0.8,1.4-1.2C20.1,9.7,16.4,7.2,12.6,4.6z M11.6,6.6c-0.1,0.7-0.1,1.5,0.1,2.2
	C11.8,8.9,11.9,8.9,12,9c2.2,1.6,4.5,3.3,6.7,4.9C18.8,14,18.9,14,19,14c0.7,0,1.4,0,2.1-0.1C18,11.5,14.8,9,11.6,6.6z M12.4,10.6
	c0.5,1.1,1.1,2,1.7,3c0.9,0.1,1.8,0.2,2.7,0.3C15.3,12.8,13.8,11.7,12.4,10.6z M5.5,14.1c3.2,2.2,6.4,4.5,9.6,6.7
	c0-0.7-0.1-1.4-0.2-2.1c-2.3-1.5-4.6-3-6.9-4.5C7.8,14.2,7.7,14,7.5,14C6.8,14,6.2,14.1,5.5,14.1L5.5,14.1z M2.6,15.7
	c4,2.6,8,5.1,12.1,7.7c0.2-0.4,0.3-0.9,0.4-1.3c-3.6-2.5-7.2-5.1-10.9-7.6C3.5,14.7,3,15.2,2.6,15.7z M2,16.7
	c-0.3,0.6-0.5,1.2-0.7,1.9c4,2.2,8.1,4.4,12.1,6.6c0.2-0.2,0.5-0.5,0.7-0.8c-0.8-0.5-1.7-1.1-2.5-1.6C8.4,20.8,5.2,18.7,2,16.7
	L2,16.7z"/>
</svg>
