<?xml version="1.0" encoding="utf-8"?>
<!-- Generator: Adobe Illustrator 26.0.3, SVG Export Plug-In . SVG Version: 6.00 Build 0)  -->
<svg version="1.1" id="Layer_1" xmlns="http://www.w3.org/2000/svg" xmlns:xlink="http://www.w3.org/1999/xlink" x="0px" y="0px"
	 viewBox="0 0 32 32" style="enable-background:new 0 0 32 32;" xml:space="preserve">
<style type="text/css">
	.st0{fill:#FFFFFF;}
</style>
<path class="st0" d="M21.5,9.1h1.9V25H8.7V9.1h2.4V8.2c0-1.2,1-3.2,3.3-3.2h3.7c2.3,0,3.3,2,3.3,3.2C21.5,8.2,21.5,9.1,21.5,9.1z
	 M13.6,9.1H19V8.2c0-0.4-0.4-0.8-0.8-0.8h-3.7c-0.5,0-0.8,0.3-0.8,0.8C13.6,8.2,13.6,9.1,13.6,9.1z M4,11.3c0-1.3,1.1-2.3,2.4-2.3
	h0.9V25H6.4C5.1,25,4,24,4,22.7V11.3L4,11.3z M25.6,9.1c1.3,0,2.4,1,2.4,2.3v11.4c0,1.3-1.1,2.3-2.4,2.3h-0.8V9.1
	C24.8,9.1,25.6,9.1,25.6,9.1z"/>
</svg>
