<?xml version="1.0" encoding="utf-8"?>
<!-- Generator: Adobe Illustrator 26.0.3, SVG Export Plug-In . SVG Version: 6.00 Build 0)  -->
<svg version="1.1" id="Layer_1" xmlns="http://www.w3.org/2000/svg" xmlns:xlink="http://www.w3.org/1999/xlink" x="0px" y="0px"
	 viewBox="0 0 25 31" style="enable-background:new 0 0 25 31;" xml:space="preserve">
<style type="text/css">
	.st0{fill:#FFFFFF;}
</style>
<path class="st0" d="M6.8,5.1c3.8,0,7.6,0,11.4,0c0,0.8,0,1.5,0,2.3h-1.1c0,2.1,0,4.3,0,6.4c0,0.2,0,0.3,0.1,0.5
	c0.3,0.4,0.6,0.8,0.9,1.2c0.9,1,1.8,2,2.7,3c1.2,1.4,2.4,2.9,3.4,4.5c0.5,0.9,0.9,1.8,0.9,2.7c0,0.5,0,1-0.2,1.4
	c-0.3,1.1-1,1.9-2,2.5c-1,0.6-2.2,0.8-3.4,0.9h-14c-0.7,0-1.3-0.2-2-0.3c-1-0.3-2-0.8-2.6-1.7c-0.7-0.8-0.9-1.9-0.8-3
	c0.1-0.8,0.4-1.6,0.8-2.3c0.6-1.1,1.3-2.1,2.1-3.1c1.3-1.7,2.8-3.3,4.2-4.9c0.2-0.3,0.5-0.6,0.7-0.9C7.9,14.3,8,14.2,8,14.1V7.4H6.8
	V5.1z M10.2,14.4c0,0.5-0.3,0.9-0.5,1.3c-0.5,0.7-1.1,1.3-1.6,1.9c-1.6,1.9-3.4,3.7-4.7,5.8c-0.4,0.6-0.7,1.2-0.9,1.8
	c-0.2,0.6-0.1,1.4,0.3,1.9c0.4,0.5,1,0.7,1.5,0.9c0.1-1,0.4-1.9,0.8-2.7c0.6-1.3,1.3-2.6,2.1-3.8c0.5-0.9,1.1-1.7,1.7-2.5h9.4
	c-0.8-0.9-1.5-1.7-2.3-2.6c-0.3-0.4-0.6-0.8-0.9-1.2c-0.1-0.2-0.2-0.5-0.2-0.8V7.4h-4.6C10.2,9.8,10.2,12.1,10.2,14.4z M10.4,20.2
	c-0.5,0.1-0.9,0.4-1.2,0.9c-0.3,0.6-0.3,1.4,0.1,1.9c0.5,0.7,1.5,1,2.3,0.6c0.8-0.4,1.1-1.4,0.8-2.2C12.1,20.5,11.2,20,10.4,20.2
	L10.4,20.2z M15.9,22.4c-1,0-1.9,0.7-2.2,1.6c-0.2,0.7-0.2,1.4,0.2,2c0.6,1.1,2.1,1.6,3.2,0.9c0.1-0.1,0.2-0.1,0.3-0.2
	c0.5-0.4,0.9-1,1-1.7c0.1-0.7-0.1-1.3-0.6-1.8C17.3,22.7,16.6,22.3,15.9,22.4z M14.1,0.6c0.5,0,1.1,0.2,1.4,0.6
	c0.4,0.4,0.5,1.1,0.3,1.6c-0.2,0.7-0.9,1.1-1.6,1.1c-0.6,0-1.1-0.3-1.4-0.9c-0.3-0.5-0.3-1.1,0-1.6C13,0.9,13.6,0.6,14.1,0.6z
	 M13.8,10.8c0.3,0.6,0.1,1.5-0.4,1.9c-0.5,0.5-1.3,0.5-1.9,0.2c-0.6-0.3-0.9-1-0.8-1.6c0.1-0.7,0.6-1.3,1.3-1.4
	C12.7,9.7,13.5,10.1,13.8,10.8L13.8,10.8z"/>
</svg>
