<?xml version="1.0" encoding="utf-8"?>
<!-- Generator: Adobe Illustrator 26.0.3, SVG Export Plug-In . SVG Version: 6.00 Build 0)  -->
<svg version="1.1" id="Layer_1" xmlns="http://www.w3.org/2000/svg" xmlns:xlink="http://www.w3.org/1999/xlink" x="0px" y="0px"
	 viewBox="0 0 24 24" style="enable-background:new 0 0 24 24;" xml:space="preserve">
<style type="text/css">
	.st0{fill-rule:evenodd;clip-rule:evenodd;fill:#FFFFFF;}
</style>
<path class="st0" d="M10.1,11.5l8.4,9.2c0.6,0.7,1.6,0.7,2.3,0.1c0.7-0.6,0.7-1.6,0.1-2.3c0,0-0.1-0.1-0.1-0.1l-9.2-8.4
	c0.7-0.7,1.4-1.5,2-2.3L10,4.2C7.8,5.9,5.9,7.8,4.2,10l3.5,3.5C8.6,12.9,9.4,12.2,10.1,11.5L10.1,11.5z M3.3,11.2
	c-0.4,0.4-0.4,1,0,1.3l1.9,1.9c0.4,0.4,1,0.4,1.3,0c0,0,0,0,0,0C6.5,14.5,3.3,11.2,3.3,11.2z M14.5,6.5c0.4-0.4,0.4-1,0-1.3
	c0,0,0,0,0,0l-1.9-1.9c-0.4-0.4-1-0.4-1.3,0c0,0,0,0,0,0L14.5,6.5z M11.7,20.1H6.1c-0.5,0-0.9,0.4-0.9,0.9l0,0V22h7.5v-0.9
	C12.6,20.5,12.2,20.1,11.7,20.1C11.7,20.1,11.7,20.1,11.7,20.1L11.7,20.1z"/>
</svg>
