<?xml version="1.0" encoding="utf-8"?>
<!-- Generator: Adobe Illustrator 26.0.3, SVG Export Plug-In . SVG Version: 6.00 Build 0)  -->
<svg version="1.1" id="Layer_1" xmlns="http://www.w3.org/2000/svg" xmlns:xlink="http://www.w3.org/1999/xlink" x="0px" y="0px"
	 viewBox="0 0 16 24" style="enable-background:new 0 0 16 24;" xml:space="preserve">
<style type="text/css">
	.st0{fill:#FFFFFF;}
</style>
<path class="st0" d="M15.5,5.7c-0.1-0.1-0.2-0.2-0.4-0.1h-2.9c-0.2-0.9-0.6-1.7-1.1-2.4h4c0.1,0,0.3,0,0.4-0.1
	c0.1-0.1,0.2-0.2,0.2-0.4V1c0-0.1-0.1-0.3-0.2-0.4c-0.1-0.1-0.2-0.2-0.4-0.1H0.9c-0.1,0-0.3,0-0.4,0.1C0.4,0.7,0.4,0.9,0.4,1v2.2
	c0,0.1,0.1,0.3,0.2,0.4c0.1,0.1,0.2,0.2,0.4,0.2h2.5c2.4,0,3.9,0.6,4.5,1.8h-7c-0.1,0-0.3,0-0.4,0.1C0.4,5.8,0.4,5.9,0.4,6.1v1.7
	c0,0.2,0.1,0.3,0.2,0.4c0.1,0.1,0.2,0.2,0.4,0.1h7.2c-0.2,0.9-0.8,1.6-1.7,2C5.5,10.8,4.3,11,2.8,11H0.9c-0.1,0-0.3,0.1-0.4,0.2
	c-0.1,0.1-0.2,0.2-0.2,0.4v2.1c0,0.1,0.1,0.3,0.2,0.4c2.2,2.2,5,5.3,8.4,9.3c0.1,0.1,0.3,0.2,0.4,0.2h3.3c0.2,0,0.4-0.1,0.5-0.3
	c0.1-0.2,0.1-0.4-0.1-0.6c-3.3-3.9-5.9-6.8-7.8-8.8c1.9-0.2,3.5-0.8,4.7-1.8c1.2-1,1.9-2.3,2.2-3.8h2.9c0.1,0,0.3,0,0.4-0.1
	c0.1-0.1,0.2-0.2,0.2-0.4V6.1C15.6,5.9,15.6,5.8,15.5,5.7L15.5,5.7z"/>
</svg>
