<?xml version="1.0" encoding="utf-8"?>
<!-- Generator: Adobe Illustrator 26.0.3, SVG Export Plug-In . SVG Version: 6.00 Build 0)  -->
<svg version="1.1" id="Layer_1" xmlns="http://www.w3.org/2000/svg" xmlns:xlink="http://www.w3.org/1999/xlink" x="0px" y="0px"
	 viewBox="0 0 72 72" style="enable-background:new 0 0 72 72;" xml:space="preserve">
<style type="text/css">
	.st0{fill:#FFFFFF;}
	.st1{fill:none;}
</style>
<g>
	<path class="st0" d="M49.5,45.8c1.8,0,3.2-1.5,3.2-3.2V26.2c0-1.8-1.5-3.2-3.2-3.2h-26c-1.8,0-3.2,1.5-3.2,3.2v16.2
		c0,1.8,1.5,3.2,3.2,3.2h-4.9c-0.9,0-1.6,0.7-1.6,1.6s0.7,1.6,1.6,1.6h35.8c0.9,0,1.6-0.7,1.6-1.6s-0.7-1.6-1.6-1.6H49.5z
		 M23.5,26.2h26v16.2h-26V26.2z"/>
	<path class="st1" d="M0,0h72v72H0V0z"/>
</g>
</svg>
