<?xml version="1.0" encoding="utf-8"?>
<!-- Generator: Adobe Illustrator 26.0.3, SVG Export Plug-In . SVG Version: 6.00 Build 0)  -->
<svg version="1.1" id="Layer_1" xmlns="http://www.w3.org/2000/svg" xmlns:xlink="http://www.w3.org/1999/xlink" x="0px" y="0px"
	 viewBox="0 0 27 25" style="enable-background:new 0 0 27 25;" xml:space="preserve">
<style type="text/css">
	.st0{fill:#FFFFFF;}
</style>
<path class="st0" d="M7.8,15.7c0.8,0,1.5-0.1,2.2-0.1V7.9C9.3,7.8,8.6,7.8,7.8,7.8C3.5,7.8,0,9.4,0,11.4v0.8
	C0,14.1,3.5,15.7,7.8,15.7L7.8,15.7z M7.8,19.7c0.8,0,1.5,0,2.2-0.1v-2.2c-0.7,0.1-1.4,0.1-2.2,0.1c-3.8,0-6.9-1.2-7.7-2.8
	C0.1,14.8,0,15.1,0,15.3v0.8C0,18.1,3.5,19.7,7.8,19.7z M10,21.4v-0.2c-0.7,0.1-1.4,0.1-2.2,0.1c-3.8,0-6.9-1.2-7.7-2.8
	C0.1,18.8,0,19.1,0,19.3v0.8c0,2,3.5,3.6,7.8,3.6c0.9,0,1.7-0.1,2.5-0.2c-0.2-0.4-0.3-0.8-0.3-1.2C10,22.2,10,21.4,10,21.4z
	 M19.2,0.4c-4.3,0-7.8,1.6-7.8,3.6v0.8c0,2,3.5,3.6,7.8,3.6c4.3,0,7.8-1.6,7.8-3.6V4C27,2,23.5,0.4,19.2,0.4z M19.2,10.1
	c-3.8,0-6.9-1.2-7.7-2.8c-0.1,0.2-0.2,0.5-0.2,0.7v0.8c0,2,3.5,3.6,7.8,3.6c4.3,0,7.8-1.6,7.8-3.6V8c0-0.2-0.1-0.5-0.2-0.7
	C26.1,8.9,22.9,10.1,19.2,10.1L19.2,10.1z M19.2,14c-3.8,0-6.9-1.2-7.7-2.8c-0.1,0.2-0.2,0.5-0.2,0.7v0.8c0,2,3.5,3.6,7.8,3.6
	c4.3,0,7.8-1.6,7.8-3.6v-0.8c0-0.2-0.1-0.5-0.2-0.7C26.1,12.8,22.9,14,19.2,14L19.2,14z M19.2,18.2c-3.8,0-6.9-1.2-7.7-2.8
	c-0.1,0.2-0.2,0.5-0.2,0.7v0.8c0,2,3.5,3.6,7.8,3.6c4.3,0,7.8-1.6,7.8-3.6v-0.8c0-0.2-0.1-0.5-0.2-0.7C26.1,17,22.9,18.2,19.2,18.2z
	 M19.2,22.2c-3.8,0-6.9-1.2-7.7-2.8c-0.1,0.2-0.2,0.5-0.2,0.7v0.8c0,2,3.5,3.6,7.8,3.6c4.3,0,7.8-1.6,7.8-3.6v-0.8
	c0-0.2-0.1-0.5-0.2-0.7C26.1,21,22.9,22.2,19.2,22.2z"/>
</svg>
