<?xml version="1.0" encoding="utf-8"?>
<!-- Generator: Adobe Illustrator 26.0.3, SVG Export Plug-In . SVG Version: 6.00 Build 0)  -->
<svg version="1.1" id="Layer_1" xmlns="http://www.w3.org/2000/svg" xmlns:xlink="http://www.w3.org/1999/xlink" x="0px" y="0px"
	 viewBox="0 0 27 16" style="enable-background:new 0 0 27 16;" xml:space="preserve">
<style type="text/css">
	.st0{fill:#FFFFFF;}
</style>
<path class="st0" d="M15.6,15.2c-0.2-0.5-0.5-1.3-0.9-2.2L10.8,2c-0.4-1-0.5-1.4-0.6-2H5.4C5.3,0.5,5.1,1.1,4.8,2l-3.9,11
	c-0.4,1.2-0.6,1.7-0.9,2.2h4.3c0.1-0.7,0.2-1.2,0.5-2l0.5-1.6h5.2l0.5,1.6c0.2,0.6,0.3,1.1,0.4,2H15.6L15.6,15.2z M9.5,8.6H6.1
	l1.7-5.5L9.5,8.6L9.5,8.6z M23.5,8c-1.3,0-1.9,0.1-2.6,0.1c-1.6,0.1-2.9,0.5-3.8,1.2c-0.9,0.6-1.3,1.5-1.3,2.7c0,1,0.3,1.9,1,2.5
	c0.7,0.7,1.8,1,3.1,1c1.5,0,2.5-0.3,3.5-1.1v0.8H27c-0.1-0.8-0.1-1.5-0.1-2.6V7.7c0-1.6-0.5-2.6-1.7-3.3c-0.7-0.4-2-0.6-3.4-0.6
	c-1.8,0-3.1,0.3-4.1,1C17,5.3,16.6,5.9,16.2,7l3.5,0.6c0.3-0.9,0.9-1.3,2.1-1.3c1.2,0,1.7,0.4,1.7,1.3L23.5,8L23.5,8z M23.5,10.8
	c0,0.5-0.2,1-0.7,1.4c-0.5,0.4-1.3,0.7-2.1,0.7c-0.9,0-1.5-0.4-1.5-1c0-0.5,0.4-1,1.1-1.2c0.7-0.2,1.5-0.3,3.1-0.4L23.5,10.8
	L23.5,10.8z"/>
</svg>
