<?xml version="1.0" encoding="utf-8"?>
<!-- Generator: Adobe Illustrator 26.0.3, SVG Export Plug-In . SVG Version: 6.00 Build 0)  -->
<svg version="1.1" id="Layer_1" xmlns="http://www.w3.org/2000/svg" xmlns:xlink="http://www.w3.org/1999/xlink" x="0px" y="0px"
	 viewBox="0 0 72 72" style="enable-background:new 0 0 72 72;" xml:space="preserve">
<style type="text/css">
	.st0{fill:#FFFFFF;}
</style>
<g>
	<g>
		<path class="st0" d="M49.5,19.5H26.8c-0.9,0-1.5,0.7-1.5,1.6v30.3c0,0.9,0.7,1.6,1.5,1.6h22.6c0.8,0,1.5-0.7,1.5-1.6V21.1
			C51,20.2,50.3,19.5,49.5,19.5L49.5,19.5z M23.6,19.5h-1c-0.9,0-1.5,0.7-1.5,1.6v30.3c0,0.9,0.7,1.6,1.5,1.6h1V19.5z"/>
		<path class="st0" d="M47.4,19h-5.1c-0.3,0-0.5,0.2-0.5,0.5v8c0,0.2,0.1,0.4,0.3,0.5c0.2,0.1,0.4,0.1,0.5,0l2.3-1.4l2.3,1.4
			c0.2,0.1,0.4,0.1,0.5,0c0.2-0.1,0.3-0.3,0.3-0.5v-8C47.9,19.2,47.7,19,47.4,19z M46,44c-0.2-0.5-0.5-1.2-0.8-2.1l-3.5-10.1
			c-0.2-0.6-0.4-1.2-0.6-1.8h-4.3c-0.1,0.5-0.2,1-0.5,1.8l-3.5,10.1c-0.4,1.1-0.5,1.5-0.8,2.1h3.8c0.1-0.6,0.2-1.2,0.4-1.8l0.4-1.4
			h4.7l0.4,1.4c0.2,0.6,0.3,1,0.4,1.8H46z M41.1,37.4h-3.3l1.6-4.9L41.1,37.4L41.1,37.4z"/>
	</g>
	<path class="st0" d="M0,0h72v72H0V0z"/>
</g>
</svg>
