<?xml version="1.0" encoding="utf-8"?>
<!-- Generator: Adobe Illustrator 26.0.3, SVG Export Plug-In . SVG Version: 6.00 Build 0)  -->
<svg version="1.1" id="Layer_1" xmlns="http://www.w3.org/2000/svg" xmlns:xlink="http://www.w3.org/1999/xlink" x="0px" y="0px"
	 viewBox="0 0 37 27" style="enable-background:new 0 0 37 27;" xml:space="preserve">
<style type="text/css">
	.st0{fill:#FFFFFF;}
</style>
<path class="st0" d="M22.3,6.7c-2.2,2.5-2,6.3,0.5,8.5c2.5,2.2,6.3,2,8.5-0.5C33.5,12.3,36.4,0,36.4,0S24.6,4.3,22.3,6.7z M31.6,4.8
	c-3.1,5.3-7.2,8.4-7.2,8.4C24.9,11,29.4,6.1,31.6,4.8z"/>
<path class="st0" d="M21,6.8c0.3-0.4,0.6-0.8,0.9-1.2c0.3-0.3,0.7-0.6,1.3-1C20.4,3,16,1.2,16,1.2s1.2,7.9,2.6,9.6
	c0.5,0.5,1.1,1,1.7,1.2c-0.2-0.5-0.2-0.9-0.3-1.5c-0.1-1,0.1-2.1,0.6-3c-0.7-1-1.4-2.1-1.6-2.7C19.8,5.4,20.4,6.1,21,6.8L21,6.8z
	 M31.5,21.4h-7.9c-0.1,0.2-0.2,0.4-0.3,0.6c-0.7,1-1.8,1.5-3,1.5c-0.7,0-1.4-0.2-2-0.6l-4.5-3.2l-1.6-1.2L12,18.3
	c-0.2-0.2-0.2-0.4-0.1-0.6c0.2-0.2,0.4-0.2,0.6-0.1l2.3,1.5l4.1,2.8c0.2,0.1,0.4,0.2,0.6,0.3c0.2,0.1,0.5,0.1,0.8,0.1
	c0.8,0,1.6-0.4,2.1-1.1c0.8-1.2,0.5-2.7-0.7-3.5L10.4,10C9.9,9.7,9.4,9.6,8.9,9.6H0.4V18h5.2L16.9,26c0.4,0.3,0.9,0.4,1.4,0.4h13.1
	c1.4,0,2.6-1.2,2.6-2.5C34,22.5,32.9,21.4,31.5,21.4C31.5,21.4,31.5,21.4,31.5,21.4L31.5,21.4z"/>
</svg>
