<?xml version="1.0" encoding="utf-8"?>
<!-- Generator: Adobe Illustrator 26.0.3, SVG Export Plug-In . SVG Version: 6.00 Build 0)  -->
<svg version="1.1" id="Layer_1" xmlns="http://www.w3.org/2000/svg" xmlns:xlink="http://www.w3.org/1999/xlink" x="0px" y="0px"
	 viewBox="0 0 50 50" style="enable-background:new 0 0 50 50;" xml:space="preserve">
<style type="text/css">
	.st0{fill:#FFFFFF;}
</style>
<path class="st0" d="M26.2,12c5.4,0,9.8,4.4,9.8,9.7c0,1.5-0.4,3-1,4.4c-0.6,1.2-1.5,2.3-2.5,3.1V38H21.2v-4.2h-4.8v-5.2H14l2.5-7
	C16.5,16.3,20.9,12,26.2,12z M30,25.1c1-1,1.5-2.3,1.5-3.7c0-2.9-2.4-5.2-5.3-5.2c-2.9,0-5.3,2.3-5.3,5.2c0,1.4,0.5,2.7,1.5,3.7
	l0.1,0.1c0.4,0.4,0.7,0.9,0.8,1.5v1.3c0,1.3,1.1,2.4,2.4,2.4h1c1.3,0,2.4-1.1,2.4-2.4v-1.3C29.2,26.1,29.5,25.6,30,25.1L30,25.1
	L30,25.1z M24.9,27.3h2.7v0.6c0,0.5-0.4,0.8-0.8,0.8h-1c-0.5,0-0.8-0.4-0.8-0.8L24.9,27.3L24.9,27.3z M26.2,20.9
	c0.3,0,0.5,0.2,0.5,0.5c0,0.3-0.2,0.5-0.5,0.5s-0.5-0.2-0.5-0.5C25.7,21.1,25.9,20.9,26.2,20.9L26.2,20.9z M26.2,17.7
	c2,0,3.7,1.7,3.7,3.7c0,1-0.4,1.9-1,2.6l0,0c-0.5,0.5-0.9,1.1-1.1,1.8H27v-2.5c0.8-0.3,1.3-1.1,1.3-1.9c0-1.1-0.9-2.1-2.1-2.1
	c-1.1,0-2.1,0.9-2.1,2.1c0,0.9,0.5,1.6,1.3,1.9v2.5h-0.7c-0.2-0.7-0.6-1.3-1.1-1.8l0,0c-0.7-0.7-1-1.6-1-2.6
	C22.5,19.4,24.2,17.7,26.2,17.7z"/>
</svg>
