<?xml version="1.0" encoding="utf-8"?>
<!-- Generator: Adobe Illustrator 26.0.3, SVG Export Plug-In . SVG Version: 6.00 Build 0)  -->
<svg version="1.1" id="Layer_1" xmlns="http://www.w3.org/2000/svg" xmlns:xlink="http://www.w3.org/1999/xlink" x="0px" y="0px"
	 viewBox="0 0 72 72" style="enable-background:new 0 0 72 72;" xml:space="preserve">
<style type="text/css">
	.st0{fill:#FFFFFF;}
	.st1{fill:none;}
</style>
<g>
	<g>
		<path class="st0" d="M23,21L23,21c-0.4,0-0.7,0.1-1,0.4c-0.3,0.3-0.4,0.6-0.4,1v21.1c0,0.8,0.6,1.4,1.4,1.4
			c3.2,0,8.7,0.7,12.4,4.6v-22c0-0.3-0.1-0.5-0.2-0.7C32.1,21.8,26.2,21,23,21L23,21z M51.4,43.5V22.4c0-0.4-0.1-0.7-0.4-1
			c-0.3-0.3-0.6-0.4-1-0.4h0c-3.3,0-9.2,0.8-12.3,5.8c-0.1,0.2-0.2,0.5-0.2,0.7v22c3.8-4,9.2-4.6,12.4-4.6
			C50.8,44.9,51.4,44.2,51.4,43.5z"/>
		<path class="st0" d="M54.6,25.9h-1v17.6c0,2-1.6,3.6-3.6,3.6c-2.8,0-7.3,0.5-10.5,3.6c5.6-1.4,11.4-0.5,14.8,0.3
			c0.8,0.2,1.5-0.3,1.7-1.1c0-0.1,0-0.2,0-0.3V27.3C56,26.5,55.4,25.9,54.6,25.9z M19.4,43.5V25.9h-1c-0.8,0-1.4,0.6-1.4,1.4v22.3
			c0,0.8,0.6,1.4,1.4,1.4c0.1,0,0.2,0,0.3,0c3.3-0.8,9.2-1.7,14.8-0.3c-3.2-3.1-7.8-3.6-10.5-3.6C21,47.1,19.4,45.4,19.4,43.5z"/>
	</g>
	<path class="st1" d="M0,0h72v72H0V0z"/>
</g>
</svg>
