<?xml version="1.0" encoding="utf-8"?>
<!-- Generator: Adobe Illustrator 26.0.3, SVG Export Plug-In . SVG Version: 6.00 Build 0)  -->
<svg version="1.1" id="Layer_1" xmlns="http://www.w3.org/2000/svg" xmlns:xlink="http://www.w3.org/1999/xlink" x="0px" y="0px"
	 viewBox="0 0 27 28" style="enable-background:new 0 0 27 28;" xml:space="preserve">
<style type="text/css">
	.st0{fill:#FFFFFF;}
</style>
<path class="st0" d="M24.7,6.8l-0.4,0.1l-2.2,0.2l-0.6,1l-0.4-0.1l-1.7-1.5l-0.2-0.8l-0.3-0.9l-1.1-1l-1.3-0.2l0,0.6l1.2,1.2L18.3,6
	l-0.7,0.4L17,6.2l-0.8-0.3l0-0.7l-1.1-0.4l-0.4,1.6l-1.1,0.2l0.1,0.9l1.4,0.3l0.2-1.4l1.2,0.2l0.6,0.3h0.9L18.7,8l1.6,1.6l-0.1,0.6
	l-1.3-0.2l-2.2,1.1L15,13.2l-0.2,0.9h-0.6l-1.1-0.5l-1,0.5l0.3,1.1l0.5-0.5l0.8,0l-0.1,1l0.7,0.2l0.7,0.7l1.1-0.3l1.2,0.2l1.4,0.4
	l0.7,0.1l1.2,1.4l2.3,1.4l-1.5,2.9l-1.6,0.7L19.2,25l-2.3,1.5l-0.2,0.9C22.6,26,27,20.6,27,14.3C27,11.6,26.2,9,24.7,6.8L24.7,6.8z
	 M15,21.3l-1-1.8l0.9-1.9l-0.9-0.3l-1-1l-2.2-0.5l-0.7-1.6v0.9H9.7l-1.9-2.6v-2.2L6.4,8.1L4.1,8.5H2.6L1.9,8l1-0.8l-1,0.2
	C0.6,9.5,0,11.9,0,14.3c0,7.5,6,13.5,13.5,13.5c0.6,0,1.1,0,1.7-0.1L15.1,26c0,0,0.6-2.4,0.6-2.5C15.7,23.4,15,21.3,15,21.3z M5,5.1
	l2.4-0.3l1.1-0.6l1.2,0.4l2-0.1l0.7-1.1l1,0.2l2.4-0.2l0.7-0.7L17.4,2l1.3,0.2l0.5-0.1C13.7-0.6,7,0.9,3.1,5.7h0
	C3.1,5.7,5,5.1,5,5.1z M14.1,2.1l1.4-0.8l0.9,0.5l-1.3,1L13.8,3l-0.6-0.4L14.1,2.1L14.1,2.1z M10,2.2l0.6,0.3l0.8-0.3L11.8,3L10,3.5
	L9.1,3C9.1,3,10,2.4,10,2.2z"/>
</svg>
