<?xml version="1.0" encoding="utf-8"?>
<!-- Generator: Adobe Illustrator 26.0.3, SVG Export Plug-In . SVG Version: 6.00 Build 0)  -->
<svg version="1.1" id="Layer_1" xmlns="http://www.w3.org/2000/svg" xmlns:xlink="http://www.w3.org/1999/xlink" x="0px" y="0px"
	 viewBox="0 0 20 17" style="enable-background:new 0 0 20 17;" xml:space="preserve">
<style type="text/css">
	.st0{fill:#FFFFFF;}
</style>
<path class="st0" d="M12.1,15.5h-1.3V3.4h5.6L14,7.2c-0.1,0.2-0.1,0.4,0.1,0.6c0.2,0.1,0.4,0.1,0.6-0.1c0,0,0,0,0,0l2-3.3l2,3.2
	c0.1,0.2,0.4,0.2,0.6,0.1c0.2-0.1,0.2-0.3,0.1-0.5l-2.4-3.7h0c0.3,0,0.6-0.3,0.6-0.6s-0.3-0.6-0.6-0.6h-4.6
	c-0.3-0.4-0.7-0.7-1.1-0.8C11.3,0.6,10.6,0,9.8,0C9.2,0.1,8.6,0.7,8.5,1.3C8.1,1.5,7.7,1.8,7.4,2.1H2.8c-0.3,0-0.6,0.3-0.6,0.6
	s0.3,0.6,0.6,0.6c0,0,0,0,0,0h0L0.5,7.2C0.4,7.3,0.4,7.6,0.6,7.7S1,7.8,1.2,7.6l0,0l2-3.3l2,3.2c0.1,0.2,0.4,0.2,0.6,0.1
	C6,7.6,6.1,7.3,5.9,7.2L3.6,3.4h5.6v12.1H7.8c-0.8,0-1.4,0.6-1.4,1.4h7.1C13.6,16.2,12.9,15.5,12.1,15.5z"/>
<path class="st0" d="M6.2,8.2h-6C0.1,8.2,0,8.3,0,8.4c0,0,0,0,0,0c0,1.8,1.4,3.2,3.2,3.2c1.8,0,3.2-1.4,3.2-3.2
	C6.4,8.3,6.3,8.2,6.2,8.2L6.2,8.2z M19.7,8.2h-6c-0.1,0-0.2,0.1-0.2,0.2l0,0c0,1.8,1.4,3.2,3.2,3.2c1.8,0,3.2-1.4,3.2-3.2
	C20,8.3,19.9,8.2,19.7,8.2L19.7,8.2z"/>
</svg>
