<?xml version="1.0" encoding="utf-8"?>
<!-- Generator: Adobe Illustrator 26.0.3, SVG Export Plug-In . SVG Version: 6.00 Build 0)  -->
<svg version="1.1" id="Layer_1" xmlns="http://www.w3.org/2000/svg" xmlns:xlink="http://www.w3.org/1999/xlink" x="0px" y="0px"
	 viewBox="0 0 27 28" style="enable-background:new 0 0 27 28;" xml:space="preserve">
<style type="text/css">
	.st0{fill:#FFFFFF;}
</style>
<path class="st0" d="M15.6,15c0.3-0.2,0.8-0.3,1.1-0.3c2.7,0,5.4,0,8.1,0c0.5,0,1.1,0.2,1.4,0.5c0.4,0.4,0.7,1,0.7,1.5v8.4
	c0,0.6-0.3,1.2-0.7,1.5c-0.4,0.3-0.8,0.5-1.3,0.5h-8.4c-0.7,0-1.4-0.4-1.7-1c-0.2-0.4-0.3-0.8-0.3-1.3v-7.5c0-0.3,0-0.6,0-1
	C14.7,15.9,15,15.3,15.6,15z M16.6,17.9c0,0.7,0,1.4,0,2.1c2.8,0,5.5,0,8.3,0v-2.1C24.9,17.9,16.6,17.9,16.6,17.9z M16.6,22l0,2.1
	l8.3,0l0-2.1L16.6,22L16.6,22z M0.7,15.3c0.4-0.4,0.9-0.5,1.5-0.5c2.7,0,5.4,0,8.2,0c0.7,0,1.5,0.4,1.8,1c0.2,0.4,0.3,0.9,0.3,1.3
	c0,2.7,0,5.3,0,8c0,0.4-0.1,0.9-0.4,1.2c-0.4,0.6-1,0.9-1.7,0.9H2.1c-0.6,0-1.2-0.3-1.5-0.7C0.2,26.1,0,25.6,0,25.2v-8.4
	C0,16.2,0.3,15.7,0.7,15.3L0.7,15.3z M2.6,18.8C3.3,19.5,4,20.2,4.8,21l-2.2,2.2c0.5,0.5,1,1,1.5,1.5l2.2-2.2
	c0.7,0.7,1.5,1.5,2.2,2.2c0.5-0.5,1-1,1.5-1.5c-0.7-0.7-1.5-1.5-2.2-2.2c0.7-0.7,1.5-1.5,2.2-2.2l-1.5-1.5l-2.2,2.2
	C5.5,18.8,4.8,18,4,17.3L2.6,18.8L2.6,18.8z M16.6,0.2h8.3c0.6,0,1.2,0.3,1.5,0.7C26.8,1.3,27,1.8,27,2.3v8.4c0,0.8-0.5,1.5-1.2,1.8
	c-0.4,0.2-0.8,0.2-1.2,0.2c-2.6,0-5.2,0-7.9,0c-0.3,0-0.5,0-0.8-0.1c-0.6-0.2-1.1-0.7-1.3-1.3c-0.1-0.4-0.1-0.8-0.1-1.2V2.5
	c0-0.4,0-0.8,0.2-1.1C15.1,0.7,15.8,0.2,16.6,0.2z M16.6,5.4c0,0.7,0,1.4,0,2.1c2.8,0,5.5,0,8.3,0V5.4C24.9,5.4,16.6,5.4,16.6,5.4z
	 M2,0.2h8.4c0.6,0,1.2,0.3,1.5,0.7c0.4,0.4,0.5,0.9,0.5,1.4c0,2.7,0,5.4,0,8.1c0,0.4-0.1,0.9-0.4,1.2c-0.3,0.5-0.8,0.8-1.4,0.9
	c-0.3,0-0.7,0-1,0H2.2c-0.5,0-1.1-0.2-1.5-0.5c-0.4-0.4-0.7-1-0.7-1.5V2.3c0-0.5,0.2-1,0.5-1.3C0.9,0.5,1.5,0.2,2,0.2L2,0.2z
	 M5.2,2.3v3.1H2.1v2.1h3.1v3.1h2.1V7.5h3.1V5.4H7.3V2.3L5.2,2.3L5.2,2.3z"/>
</svg>
