<?xml version="1.0" encoding="utf-8"?>
<!-- Generator: Adobe Illustrator 26.0.3, SVG Export Plug-In . SVG Version: 6.00 Build 0)  -->
<svg version="1.1" id="Layer_1" xmlns="http://www.w3.org/2000/svg" xmlns:xlink="http://www.w3.org/1999/xlink" x="0px" y="0px"
	 viewBox="0 0 27 30" style="enable-background:new 0 0 27 30;" xml:space="preserve">
<style type="text/css">
	.st0{fill:#FFFFFF;}
</style>
<path class="st0" d="M13,0h0.1c0.9,0,1.7,0.6,2.3,1.3c1,1.1,1.6,2.6,2,4c0.1,0.4,0.3,0.9,0.4,1.3c0.9-0.2,1.8-0.5,2.7-0.6
	c1.3-0.2,2.7-0.2,3.9,0.3c0.6,0.2,1.1,0.6,1.5,1.2c0.3,0.6,0.4,1.3,0.3,2c-0.2,1-0.6,1.9-1.1,2.7c-0.7,1-1.5,2-2.4,2.8
	c1.1,1.1,2.1,2.2,2.8,3.6c0.4,0.8,0.7,1.6,0.8,2.5c0,0.8-0.2,1.5-0.8,2c-0.6,0.6-1.5,0.8-2.4,1c-1.8,0.2-3.5-0.2-5.2-0.6
	c-0.4,1.5-0.9,2.9-1.6,4.2c-0.3,0.6-0.7,1.1-1.2,1.6c-0.5,0.5-1.1,0.8-1.8,0.8H13c-0.7,0-1.3-0.3-1.8-0.8c-0.6-0.5-1.1-1.2-1.5-1.9
	c-0.7-1.2-1.1-2.6-1.4-3.9c-1.1,0.3-2.1,0.5-3.2,0.6c-1,0.1-2.1,0.1-3.1-0.3c-0.5-0.2-1-0.5-1.4-0.9C0.2,22.3,0,21.6,0,21
	c0.1-0.9,0.4-1.7,0.8-2.4c0.7-1.3,1.7-2.5,2.8-3.6c-0.3-0.4-0.7-0.7-1-1.1c-1-1.1-1.9-2.3-2.3-3.7C0,9.4-0.1,8.6,0.2,7.9
	C0.4,7.2,1,6.7,1.6,6.4C2.5,6,3.5,5.9,4.5,5.9c1.3,0,2.6,0.3,3.9,0.7c0.1-0.4,0.2-0.9,0.4-1.3c0.5-1.4,1-2.8,2-4
	C11.3,0.6,12.1,0,13,0L13,0z M11.9,2.7c-0.5,0.4-0.9,1-1.3,1.5C10.1,5.1,9.7,6,9.4,7c1.3,0.4,2.5,1,3.7,1.5c1.2-0.6,2.4-1.1,3.7-1.5
	c-0.4-1.3-1-2.6-1.9-3.7c-0.4-0.5-0.9-0.9-1.5-1C12.9,2.1,12.3,2.4,11.9,2.7z M3.8,7.6C3.3,7.7,2.7,8,2.4,8.4C2,8.8,2,9.3,2,9.8
	c0.1,0.7,0.4,1.4,0.7,2c0.5,0.9,1.1,1.7,1.7,2.4c0.9-0.8,1.7-1.5,2.7-2.1c0.2-0.1,0.3-0.2,0.5-0.3c0-0.2,0-0.3,0.1-0.5
	c0.1-1.2,0.3-2.4,0.5-3.5C6.7,7.4,5.2,7.3,3.8,7.6z M18.1,7.7c0.1,0.8,0.3,1.5,0.4,2.3c0.1,0.6,0.1,1.2,0.2,1.7
	c0.5,0.4,1,0.7,1.5,1.1c0.6,0.4,1.1,0.9,1.7,1.4c0.5-0.5,0.9-1.1,1.3-1.7c0.5-0.8,0.9-1.6,1.1-2.5c0.1-0.6,0-1.2-0.4-1.7
	c-0.6-0.6-1.5-0.8-2.3-0.9C20.4,7.4,19.2,7.5,18.1,7.7z M9.1,8c-0.3,1-0.5,2.1-0.6,3.1c1.2-0.8,2.4-1.5,3.6-2.1
	C11.1,8.6,10.1,8.2,9.1,8z M14.1,9c1.2,0.6,2.5,1.3,3.6,2.1C17.6,10.1,17.4,9,17.1,8C16.1,8.2,15.1,8.6,14.1,9L14.1,9z M8.4,12.2
	c-0.1,0.2,0,0.4-0.1,0.6c-0.1,1.6-0.1,3.3,0,4.9c0,0.1,0.2,0.2,0.3,0.3c1.4,1,2.9,1.8,4.4,2.6c0,0,0.1,0,0.1,0
	c1.6-0.8,3.2-1.7,4.6-2.7c0,0,0.1-0.1,0.1-0.1c0.1-1.8,0.2-3.6,0-5.4c0-0.1-0.2-0.2-0.3-0.3c-1.4-1-2.9-1.8-4.4-2.6
	C11.5,10.2,9.9,11.1,8.4,12.2z M5.1,15c0.7,0.8,1.5,1.5,2.4,2.1c-0.1-1.4-0.1-2.8,0-4.2C6.7,13.5,5.9,14.2,5.1,15z M18.7,12.9
	c0.1,1.4,0.1,2.8,0,4.2c0.8-0.7,1.6-1.4,2.4-2.1C20.3,14.2,19.5,13.5,18.7,12.9z M2.4,18.9c-0.3,0.7-0.5,1.5-0.3,2.2
	c0.1,0.5,0.5,0.8,0.9,1c0.7,0.4,1.4,0.5,2.2,0.5c1,0,2-0.1,2.9-0.3c-0.1-0.7-0.3-1.4-0.3-2.1c-0.1-0.6-0.1-1.2-0.2-1.9
	c-0.1-0.1-0.2-0.2-0.3-0.3c-1-0.7-1.9-1.4-2.8-2.2C3.6,16.7,2.9,17.7,2.4,18.9z M20.1,17.2c-0.5,0.4-1,0.7-1.4,1.1
	c-0.1,0.6-0.1,1.2-0.2,1.8c-0.1,0.8-0.2,1.5-0.4,2.2c0.7,0.1,1.5,0.3,2.2,0.3c0.9,0,1.8,0,2.6-0.3c0.5-0.2,1-0.6,1.2-1.1
	c0.2-0.8,0-1.5-0.3-2.2c-0.5-1.1-1.2-2.1-2-3.1C21.2,16.3,20.7,16.7,20.1,17.2z M8.5,18.9C8.6,19.9,8.8,21,9.1,22c1-0.3,2-0.6,3-1
	C10.9,20.4,9.7,19.7,8.5,18.9z M14.1,21c1,0.4,2,0.8,3,1c0.3-1,0.5-2.1,0.6-3.1C16.5,19.7,15.3,20.4,14.1,21z M9.4,23
	c0.3,0.9,0.6,1.7,1.1,2.5c0.4,0.6,0.8,1.3,1.4,1.7c0.4,0.3,1,0.6,1.5,0.5c0.7-0.2,1.3-0.8,1.8-1.4c0.7-1,1.2-2.2,1.6-3.3
	c-1.3-0.4-2.5-1-3.7-1.5C11.9,22.1,10.7,22.6,9.4,23z M12.6,11.6c0.8-0.1,1.5,0,2.2,0.4c0.8,0.4,1.3,1.2,1.6,2
	c0.3,0.9,0.2,1.8-0.3,2.7c-0.4,0.8-1.1,1.4-1.9,1.7c-0.7,0.2-1.4,0.2-2.1,0c-0.8-0.3-1.5-0.9-1.9-1.6c-0.5-0.9-0.5-1.9-0.2-2.9
	C10.3,12.6,11.4,11.8,12.6,11.6z"/>
</svg>
