<?xml version="1.0" encoding="utf-8"?>
<!-- Generator: Adobe Illustrator 26.0.3, SVG Export Plug-In . SVG Version: 6.00 Build 0)  -->
<svg version="1.1" id="Layer_1" xmlns="http://www.w3.org/2000/svg" xmlns:xlink="http://www.w3.org/1999/xlink" x="0px" y="0px"
	 viewBox="0 0 72 72" style="enable-background:new 0 0 72 72;" xml:space="preserve">
<style type="text/css">
	.st0{fill:#FFFFFF;}
	.st1{fill:none;}
</style>
<g>
	<g>
		<path class="st0" d="M36.1,23.4c-6.4,0-11.6,5.3-11.6,11.8c0,5.2,3.3,9.6,8,11.2v7.2h1.5v2.2h4.4v-2.2h1.5v-7.2
			c4.6-1.5,8-6,8-11.2C47.7,28.7,42.5,23.4,36.1,23.4z M36.1,16.8c-0.4,0-0.7,0.3-0.7,0.7c0,0,0,0,0,0v2.9c0,0.4,0.3,0.7,0.7,0.7
			c0,0,0,0,0,0c0.4,0,0.7-0.3,0.7-0.7c0,0,0,0,0,0v-2.9C36.8,17.1,36.5,16.8,36.1,16.8C36.1,16.8,36.1,16.8,36.1,16.8z M53.5,34.5
			h-2.9c-0.4,0-0.7,0.3-0.7,0.7c0,0,0,0,0,0c0,0.4,0.3,0.7,0.7,0.7c0,0,0,0,0,0h2.9c0.4,0,0.7-0.3,0.7-0.7c0,0,0,0,0,0
			C54.2,34.8,53.9,34.5,53.5,34.5C53.5,34.5,53.5,34.5,53.5,34.5z M21.6,34.5h-2.9c-0.4,0-0.7,0.3-0.7,0.7c0,0,0,0,0,0
			c0,0.4,0.3,0.7,0.7,0.7c0,0,0,0,0,0h2.9c0.4,0,0.7-0.3,0.7-0.7c0,0,0,0,0,0C22.3,34.8,22,34.5,21.6,34.5
			C21.6,34.5,21.6,34.5,21.6,34.5z M47.9,22.2l-2.1,2.1c-0.3,0.3-0.3,0.8,0,1c0.3,0.3,0.7,0.3,1,0c0,0,0,0,0,0l2.1-2.1
			c0.3-0.3,0.3-0.8,0-1C48.6,21.9,48.2,21.9,47.9,22.2C47.9,22.2,47.9,22.2,47.9,22.2L47.9,22.2z M25.3,45.1l-2.1,2.1
			c-0.3,0.3-0.3,0.8,0,1c0.3,0.3,0.7,0.3,1,0c0,0,0,0,0,0l2.1-2.1c0.3-0.3,0.3-0.8,0-1C26.1,44.8,25.6,44.8,25.3,45.1
			C25.3,45.1,25.3,45.1,25.3,45.1L25.3,45.1z M46.9,45.1c-0.3-0.3-0.7-0.3-1,0c0,0,0,0,0,0c-0.3,0.3-0.3,0.8,0,1l2.1,2.1
			c0.3,0.3,0.7,0.3,1,0c0,0,0,0,0,0c0.3-0.3,0.3-0.8,0-1L46.9,45.1z M24.3,22.2c-0.3-0.3-0.7-0.3-1,0c0,0,0,0,0,0
			c-0.3,0.3-0.3,0.8,0,1l2.1,2.1c0.3,0.3,0.7,0.3,1,0c0,0,0,0,0,0c0.3-0.3,0.3-0.8,0-1L24.3,22.2L24.3,22.2z"/>
		<path class="st0" d="M28.1,35.9c-0.4,0-0.7-0.3-0.7-0.7c0,0,0,0,0,0c0-4.9,3.9-8.8,8.7-8.8c0.4,0,0.7,0.3,0.7,0.7c0,0,0,0,0,0
			c0,0.4-0.3,0.7-0.7,0.7c0,0,0,0,0,0c-4,0-7.3,3.3-7.3,7.4C28.8,35.6,28.5,35.9,28.1,35.9C28.1,35.9,28.1,35.9,28.1,35.9z"/>
		<path class="st0" d="M32.5,48.4v5.2h1.5v2.2h4.4v-2.2h1.5v-5.2L32.5,48.4z"/>
	</g>
	<path class="st1" d="M0,0h72v72H0V0z"/>
</g>
</svg>
