<?xml version="1.0" encoding="utf-8"?>
<!-- Generator: Adobe Illustrator 26.0.3, SVG Export Plug-In . SVG Version: 6.00 Build 0)  -->
<svg version="1.1" id="Layer_1" xmlns="http://www.w3.org/2000/svg" xmlns:xlink="http://www.w3.org/1999/xlink" x="0px" y="0px"
	 viewBox="0 0 38 36" style="enable-background:new 0 0 38 36;" xml:space="preserve">
<style type="text/css">
	.st0{fill-rule:evenodd;clip-rule:evenodd;fill:#FFFFFF;}
</style>
<path class="st0" d="M25.6,18.4c-0.3,3.6-3.5,6.3-7.2,6c-1-0.1-2-0.4-2.9-0.9l-2.4,4.2c1.9,1.4,2.2,4,0.8,5.9
	c-1.4,1.9-4,2.2-5.9,0.8c-1.9-1.4-2.2-4-0.8-5.9c0.8-1.1,2.2-1.8,3.6-1.7l2.9-5c-0.9-1.1-1.3-2.5-1.3-4c0-1.5,0.5-2.8,1.3-3.9
	l-2.9-5.1l-0.1,0c-2.3,0-4.2-1.9-4.2-4.2c0-2.3,1.9-4.2,4.2-4.2c2.3,0,4.2,1.9,4.2,4.2c0,1-0.3,1.9-0.9,2.6l2.4,4.6
	c3.3-1.5,7.2,0,8.7,3.3c0.1,0.3,0.2,0.6,0.3,0.9h4.3c1-2.1,3.5-3,5.6-2c2.1,1,3,3.5,2,5.6c-1,2.1-3.5,3-5.6,2
	c-1.3-0.6-2.2-1.8-2.4-3.2H25.6z M0.8,19.3C0,17.9,0.4,16,1.9,15.2c1.4-0.8,3.3-0.4,4.1,1.1c0,0,0,0,0,0c0.8,1.4,0.3,3.3-1.1,4.1
	C3.4,21.2,1.6,20.7,0.8,19.3z M23.6,6.1c-0.8-1.4-0.4-3.3,1.1-4.1s3.3-0.4,4.1,1.1c0,0,0,0,0,0c0.8,1.4,0.3,3.3-1.1,4.1
	C26.2,8,24.4,7.5,23.6,6.1z M23.6,32.5c-0.8-1.4-0.4-3.3,1.1-4.1s3.3-0.4,4.1,1.1c0,0,0,0,0,0c0.8,1.4,0.3,3.3-1.1,4.1
	C26.2,34.4,24.4,33.9,23.6,32.5z"/>
</svg>
