<svg width="32" height="32" viewBox="0 0 32 32" xmlns="http://www.w3.org/2000/svg"><title>subject_accounts_32</title><path d="M11.05 16.1a7.05 7.05 0 1 1 7.05-7.047 7.05 7.05 0 0 1-7.05 7.046zm2.89-9.01a.21.21 0 0 0-.154-.059h-1.142a2.247 2.247 0 0 0-.428-.943h1.557a.203.203 0 0 0 .214-.21V5.21a.203.203 0 0 0-.214-.21h-5.56A.202.202 0 0 0 8 5.21l.001.871a.2.2 0 0 0 .063.147.207.207 0 0 0 .15.063h.97c.94 0 1.536.246 1.79.74h-2.76a.202.202 0 0 0-.214.21l.001.668a.2.2 0 0 0 .06.15.21.21 0 0 0 .154.06h2.853c-.098.358-.326.63-.685.819-.359.187-.832.281-1.42.281h-.748a.208.208 0 0 0-.15.063.2.2 0 0 0-.064.147v.832c0 .057.02.105.06.144.855.891 1.964 1.913 3.327 3.516.04.053.096.079.168.079h1.302c.094 0 .159-.04.194-.118.045-.079.036-.153-.027-.223-1.3-1.564-2.322-2.51-3.066-3.287.757-.087 1.372-.327 1.844-.72.472-.393.76-.904.862-1.533h1.122a.21.21 0 0 0 .154-.06.2.2 0 0 0 .06-.15v-.668a.202.202 0 0 0-.06-.151zm12.928 9.598c.618 0 1.12.502 1.132 1.12v2.76a1.12 1.12 0 0 1-1.12 1.12h-.777c-.484 1.575-1.424 2.986-2.696 4.118-.012.011-.024.017-.035.029l-.123.105c-1.144 1.032-1.249 2.24-1.255 2.543v.91a.606.606 0 0 1-.607.607h-3.7a.606.606 0 0 1-.607-.607v-.869a11.7 11.7 0 0 1-1.29.07c-.555 0-1.103-.04-1.64-.11v.91a.606.606 0 0 1-.607.606H9.854a.61.61 0 0 1-.607-.566v-.314c-.03-.642-.228-2.123-1.389-3.319-.805-.823-1.39-1.838-1.792-2.707a8.417 8.417 0 0 1-.7-1.86c-.006-.018-.006-.03-.006-.03a8.245 8.245 0 0 1 .531-5.413 8.444 8.444 0 0 0 5.16 1.75c3.998 0 7.354-2.77 8.253-6.492.128-.531.42-1.01.828-1.366.596-.519 1.46-.98 2.714-1.137a.67.67 0 0 1 .648 1.02c-.426.683-.794 1.634-.496 2.678a.771.771 0 0 1 .023.164c1.419 1.143 2.48 2.619 3.024 4.281h.823zm-4.617.199a.914.914 0 0 0 .916-.916.914.914 0 0 0-.916-.916.914.914 0 0 0-.916.916c0 .507.408.916.916.916z"/></svg>