<svg width="27" height="28" viewBox="0 0 27 28" xmlns="http://www.w3.org/2000/svg"><title>biology-home</title><path d="M15.757.94h.009c.393.022.657.502.42.831-.248.286-.62.421-.917.65l10.512 6.25c.09-.296.096-.625.261-.894.185-.287.653-.294.85-.016.146.174.117.416.068.62-.43 1.977-1.508 3.772-2.893 5.229a3.736 3.736 0 0 1-1.306.912c-1.068.457-2.249.544-3.397.562-3.2-.017-6.356-.61-9.535-.904 1.577 1.023 3.154 2.048 4.733 3.068-.103-.298-.22-.592-.332-.886-.067-.179-.11-.39-.007-.565a.53.53 0 0 1 .695-.23c.223.101.303.355.384.567.57 1.442.877 2.988.879 4.54-.01.986-.124 1.983-.447 2.92-.43 1.187-1.247 2.2-2.21 3.002-.604.49-1.249.933-1.95 1.273-.137.058-.296.102-.44.048a.528.528 0 0 1-.357-.639c.047-.223.258-.349.446-.445a8.578 8.578 0 0 0 1.38-.884A34513.25 34513.25 0 0 0 1.16 19.694a8.22 8.22 0 0 0-.072.98c-.004.2-.043.428-.213.556a.528.528 0 0 1-.737-.063c-.096-.098-.116-.24-.139-.369v-.093c.049-1.33.278-2.664.777-3.902.404-1.002.995-1.947 1.81-2.663.606-.52 1.375-.806 2.148-.967 1.314-.276 2.665-.227 3.998-.162a68.84 68.84 0 0 1 3.949.404c-.913-1.42-1.704-2.951-2.056-4.613-.235-1.155-.198-2.396.295-3.482.439-1.017 1.246-1.806 2.066-2.524a19.74 19.74 0 0 1 2.355-1.708c.125-.08.269-.124.415-.149zm-1.444 2.172c-.308.235-.607.481-.89.744L24.468 11.4a9.937 9.937 0 0 0 .936-1.695c-3.696-2.2-7.394-4.396-11.091-6.593zm-1.671 1.519a4.951 4.951 0 0 0-.638.925c3.467 2.647 6.936 5.292 10.401 7.942.594-.246 1.002-.76 1.413-1.23-3.724-2.548-7.45-5.092-11.176-7.637zm-1.004 2.005c-.135.712-.067 1.45.094 2.15.082.096.193.16.293.236 2.231 1.636 4.462 3.272 6.693 4.91.092.078.218.06.33.067a11.65 11.65 0 0 0 2.069-.128c-3.16-2.412-6.319-4.825-9.479-7.235zm.72 3.964c.477 1.05 1.08 2.036 1.73 2.987a93.52 93.52 0 0 0 2.74.297c-1.49-1.094-2.986-2.182-4.47-3.284zM5.51 14.136c3.196 2.24 6.388 4.486 9.584 6.728.022-.701-.05-1.401-.16-2.093-2.324-1.487-4.631-3-6.948-4.497-.157-.091-.3-.24-.495-.228a12.425 12.425 0 0 0-1.98.09zm-2.926 1.606c4.018 2.565 8.033 5.132 12.053 7.695.178-.424.267-.876.353-1.325-3.625-2.545-7.246-5.093-10.874-7.633-.642.226-1.14.723-1.532 1.263zm-.565.92a8.726 8.726 0 0 0-.664 1.904c4.032 2.208 8.066 4.413 12.1 6.617a7.13 7.13 0 0 0 .659-.79c-.82-.539-1.652-1.057-2.476-1.587-3.206-2.048-6.412-4.097-9.62-6.143z"/></svg>