<svg width="32" height="32" viewBox="0 0 32 32" xmlns="http://www.w3.org/2000/svg"><title>subject_business_studies_32</title><path d="M21.47 9.063h1.9V25H8.728V9.063h2.414v-.907c0-1.16 1-3.156 3.322-3.156h3.684c2.321 0 3.322 1.996 3.322 3.156v.907zm-7.83 0h5.332v-.907c0-.429-.37-.777-.824-.777h-3.684c-.455 0-.824.348-.824.777v.907zM4 11.343c0-1.257 1.085-2.28 2.418-2.28h.903V25h-.903C5.085 25 4 23.977 4 22.72V11.344zm21.582-2.28c1.333 0 2.418 1.023 2.418 2.28V22.72c0 1.257-1.085 2.28-2.418 2.28h-.805V9.063h.805z"/></svg>