<svg width="25" height="31" viewBox="0 0 25 31" xmlns="http://www.w3.org/2000/svg"><title>chemistry-home</title><path d="M6.82 5.122c3.793-.017 7.586-.017 11.378 0 .002.771.002 1.542 0 2.313h-1.136c-.002 2.132.002 4.263-.002 6.394.005.158-.03.337.078.47.28.411.61.783.93 1.162.889 1.014 1.781 2.025 2.67 3.039 1.216 1.43 2.416 2.89 3.35 4.53.456.853.883 1.761.93 2.747.003.478-.027.964-.173 1.42-.28 1.055-1.046 1.928-1.973 2.457-1.035.601-2.231.847-3.41.92H5.482a9.76 9.76 0 0 1-1.989-.345c-1.002-.301-1.976-.832-2.632-1.678-.661-.823-.932-1.921-.845-2.97.078-.83.423-1.598.795-2.33.6-1.112 1.344-2.136 2.123-3.124 1.338-1.686 2.807-3.256 4.206-4.888.24-.283.48-.568.696-.872.06-.09.132-.185.122-.3V7.435H6.82V5.122zm3.414 9.297c-.01.489-.286.908-.548 1.297-.496.684-1.06 1.311-1.615 1.943-1.641 1.884-3.363 3.714-4.74 5.815-.359.577-.707 1.17-.933 1.816-.224.618-.142 1.37.291 1.876.39.453.953.693 1.506.863.061-.96.444-1.86.814-2.733a31.623 31.623 0 0 1 2.073-3.77 49.177 49.177 0 0 1 1.66-2.523h9.388c-.762-.876-1.544-1.734-2.288-2.626-.314-.392-.627-.788-.86-1.235a1.732 1.732 0 0 1-.198-.78V7.444h-4.55c0 2.324.003 4.65 0 6.975zm.153 5.768a1.773 1.773 0 0 0-1.163.873c-.331.58-.294 1.35.084 1.9.478.735 1.52.993 2.278.564.759-.39 1.136-1.377.834-2.186-.272-.83-1.195-1.351-2.033-1.15zm5.492 2.172c-.976.007-1.906.687-2.212 1.63a2.467 2.467 0 0 0 .18 2.002 2.373 2.373 0 0 0 3.5.75 2.43 2.43 0 0 0 .95-1.692 2.427 2.427 0 0 0-.563-1.843 2.371 2.371 0 0 0-1.855-.847zM14.09.58a1.613 1.613 0 0 1 1.385.6c.36.44.468 1.078.27 1.615a1.633 1.633 0 0 1-1.559 1.09 1.633 1.633 0 0 1-1.397-.858 1.691 1.691 0 0 1 .003-1.598c.257-.48.761-.813 1.298-.849zm-.295 10.2c.308.643.141 1.478-.393 1.943a1.613 1.613 0 0 1-1.892.197c-.56-.316-.888-.991-.803-1.636.07-.682.605-1.278 1.265-1.415.72-.175 1.518.228 1.823.912z"/></svg>