<svg width="24" height="24" viewBox="0 0 24 24" xmlns="http://www.w3.org/2000/svg"><title>civics-side-icon</title><path d="M10.108 11.543l8.365 9.19a1.602 1.602 0 1 0 2.263-2.263l-9.193-8.363a32.921 32.921 0 0 0 2.002-2.34L10 4.22C7.84 5.9 5.9 7.84 4.22 10l3.546 3.547a32.953 32.953 0 0 0 2.343-2.004zm-6.834-.318a.937.937 0 0 0 0 1.325l1.94 1.941a.936.936 0 0 0 1.326 0l-3.266-3.266zM14.491 6.54a.936.936 0 0 0 0-1.325l-1.94-1.941a.936.936 0 0 0-1.326 0l3.266 3.266zm-2.797 13.585H6.072a.937.937 0 0 0-.937.937V22h7.496v-.937a.937.937 0 0 0-.937-.937z" fill-rule="evenodd"/></svg>