<svg width="16" height="24" viewBox="0 0 16 24" xmlns="http://www.w3.org/2000/svg"><title>Shape</title><path d="M15.466 5.71a.54.54 0 0 0-.39-.146h-2.902c-.192-.904-.554-1.688-1.086-2.352h3.954a.54.54 0 0 0 .39-.147.5.5 0 0 0 .152-.376V1.023a.5.5 0 0 0-.152-.376.541.541 0 0 0-.39-.147H.924a.54.54 0 0 0-.39.147.5.5 0 0 0-.153.376v2.172c0 .142.054.264.161.368a.532.532 0 0 0 .382.155h2.46c2.387 0 3.903.615 4.548 1.846H.924a.54.54 0 0 0-.39.147.5.5 0 0 0-.153.375v1.667c0 .152.051.277.153.375a.54.54 0 0 0 .39.147H8.17c-.25.893-.829 1.574-1.74 2.042-.91.468-2.112.703-3.605.703h-1.9a.532.532 0 0 0-.383.155.493.493 0 0 0-.16.367v2.075c0 .142.05.261.152.36 2.172 2.22 4.988 5.33 8.45 9.327a.51.51 0 0 0 .424.196h3.309c.238 0 .402-.098.492-.294.113-.196.091-.382-.068-.556-3.303-3.899-5.899-6.817-7.788-8.755 1.923-.218 3.484-.817 4.683-1.797 1.2-.98 1.929-2.255 2.19-3.823h2.85a.539.539 0 0 0 .39-.147.498.498 0 0 0 .153-.375V6.087a.499.499 0 0 0-.153-.376z"/></svg>