<svg width="27" height="25" viewBox="0 0 27 25" xmlns="http://www.w3.org/2000/svg"><title>Economics-home</title><path d="M7.845 15.689c.758 0 1.492-.05 2.186-.14V7.942a16.828 16.828 0 0 0-2.186-.14C3.512 7.801 0 9.393 0 11.358v.772c0 1.965 3.512 3.558 7.845 3.558zm0 3.972c.758 0 1.492-.049 2.186-.14v-2.23c-.694.091-1.427.141-2.186.141-3.782 0-6.939-1.214-7.68-2.83a1.735 1.735 0 0 0-.165.73v.771c0 1.965 3.512 3.558 7.845 3.558zm2.186 1.776v-.174c-.694.092-1.427.141-2.186.141-3.782 0-6.939-1.214-7.68-2.829a1.735 1.735 0 0 0-.165.729v.771c0 1.965 3.512 3.558 7.845 3.558.866 0 1.7-.064 2.479-.181a2.807 2.807 0 0 1-.293-1.244v-.771zM19.155.438c-4.332 0-7.844 1.593-7.844 3.558v.772c0 1.965 3.512 3.558 7.844 3.558C23.488 8.326 27 6.733 27 4.768v-.772C27 2.031 23.488.438 19.155.438zm0 9.63c-3.781 0-6.938-1.213-7.68-2.828a1.735 1.735 0 0 0-.164.728v.772c0 1.965 3.512 3.558 7.844 3.558 4.333 0 7.845-1.593 7.845-3.558v-.772c0-.25-.057-.493-.165-.728-.741 1.615-3.898 2.829-7.68 2.829zm0 3.973c-3.781 0-6.938-1.214-7.68-2.829a1.735 1.735 0 0 0-.164.729v.771c0 1.965 3.512 3.558 7.844 3.558 4.333 0 7.845-1.593 7.845-3.558v-.771c0-.25-.057-.494-.165-.729-.741 1.615-3.898 2.83-7.68 2.83zm0 4.187c-3.781 0-6.938-1.214-7.68-2.83a1.735 1.735 0 0 0-.164.73v.771c0 1.965 3.512 3.558 7.844 3.558 4.333 0 7.845-1.593 7.845-3.558v-.772c0-.25-.057-.493-.165-.728-.741 1.615-3.898 2.829-7.68 2.829zm0 3.972c-3.781 0-6.938-1.214-7.68-2.83a1.735 1.735 0 0 0-.164.73v.771c0 1.965 3.512 3.558 7.844 3.558 4.333 0 7.845-1.593 7.845-3.558V20.1c0-.25-.057-.494-.165-.73-.741 1.616-3.898 2.83-7.68 2.83z"/></svg>