<svg width="72" height="72" xmlns="http://www.w3.org/2000/svg"><g fill="none" fill-rule="evenodd"><g fill-rule="nonzero"><path d="M49.457 19.531H26.83c-.851 0-1.543.715-1.543 1.594v30.281c0 .88.692 1.594 1.543 1.594h22.628c.85 0 1.543-.715 1.543-1.594V21.125c0-.879-.692-1.594-1.543-1.594zm-25.9 0h-1.014c-.85 0-1.543.715-1.543 1.594v30.281c0 .88.692 1.594 1.543 1.594h1.014V19.531z" fill="#000"/><path d="M47.4 19h-5.143a.523.523 0 0 0-.514.531V27.5c0 .191.1.368.26.462.162.094.36.092.519-.007l2.307-1.43 2.306 1.43a.501.501 0 0 0 .519.007.534.534 0 0 0 .26-.462v-7.97A.523.523 0 0 0 47.4 19zM46 44c-.213-.471-.474-1.161-.785-2.053l-3.55-10.13A13.929 13.929 0 0 1 41.11 30h-4.27c-.082.488-.229.993-.523 1.817l-3.533 10.13c-.392 1.144-.54 1.548-.785 2.053h3.827a9.934 9.934 0 0 1 .409-1.817l.442-1.43h4.66l.442 1.43c.164.572.262 1.01.393 1.817H46zm-4.941-6.588h-3.294l1.63-4.941 1.664 4.94z" fill="#C97DEB"/></g><path d="M0 0h72v72H0z"/></g></svg>