<svg width="27" height="16" viewBox="0 0 27 16" xmlns="http://www.w3.org/2000/svg"><title>English-home</title><path d="M15.582 15.173c-.236-.51-.528-1.258-.873-2.225L10.759 1.97c-.365-.967-.492-1.441-.62-1.97H5.39c-.092.529-.256 1.076-.583 1.97L.874 12.948c-.437 1.24-.6 1.678-.874 2.225h4.26c.09-.675.218-1.24.455-1.97l.491-1.55h5.188l.492 1.55c.182.62.291 1.095.437 1.97h4.26zM9.502 8.59H6.08l1.693-5.471 1.73 5.47zm13.966-.62c-1.31.036-1.856.054-2.566.127-1.639.146-2.858.53-3.787 1.186-.873.601-1.328 1.513-1.328 2.662 0 1.003.345 1.879 1 2.48.729.675 1.767 1.004 3.15 1.004 1.493 0 2.512-.31 3.531-1.095v.84H27c-.091-.821-.127-1.478-.127-2.59V7.66c0-1.642-.51-2.645-1.675-3.283-.71-.383-2.02-.638-3.368-.638-1.766 0-3.113.346-4.096 1.04-.764.546-1.165 1.13-1.529 2.206l3.477.565c.273-.893.892-1.276 2.057-1.276 1.202 0 1.73.4 1.73 1.276v.42zm0 2.845c0 .547-.236 1.04-.655 1.404-.491.42-1.31.693-2.057.693-.946 0-1.493-.383-1.493-1.04 0-.529.4-.984 1.056-1.203.747-.237 1.53-.329 3.15-.365v.51z"/></svg>