<svg width="37" height="27" viewBox="0 0 37 27" xmlns="http://www.w3.org/2000/svg"><title>noun_409656_cc</title><path d="M22.325 6.731c-2.204 2.512-2.004 6.33.5 8.54 2.505 2.21 6.312 2.009 8.516-.503C33.545 12.257 36.4 0 36.4 0S24.579 4.27 22.325 6.731zM31.6 4.8c-3.144 5.336-7.2 8.4-7.2 8.4.456-2.219 5.02-7.132 7.2-8.4z"/><path d="M21.03 6.77c.264-.436.582-.824.9-1.163.317-.29.74-.63 1.27-.968C20.394 2.992 16 1.2 16 1.2s1.218 7.894 2.594 9.59c.477.532 1.059.968 1.694 1.21-.159-.484-.212-.92-.264-1.453a6.386 6.386 0 0 1 .582-3.003c-.741-1.017-1.43-2.082-1.641-2.712.847.581 1.482 1.26 2.064 1.938zm10.467 14.59h-7.895c-.096.192-.192.384-.337.576a3.632 3.632 0 0 1-2.984 1.536 3.72 3.72 0 0 1-2.022-.624l-4.525-3.216-1.637-1.2-.144-.096a.523.523 0 0 1-.144-.624.526.526 0 0 1 .625-.144l2.263 1.488 4.14 2.832c.192.144.433.24.625.336.241.096.53.144.819.144a2.46 2.46 0 0 0 2.07-1.104c.77-1.152.481-2.736-.674-3.504l-11.313-7.728A2.552 2.552 0 0 0 8.92 9.6H.4v8.448h5.15l11.361 7.92c.433.288.915.432 1.444.432H31.45c1.396 0 2.551-1.152 2.551-2.544a2.482 2.482 0 0 0-2.503-2.496z"/></svg>