<svg width="72" height="72" xmlns="http://www.w3.org/2000/svg"><g fill="none" fill-rule="evenodd"><g fill-rule="nonzero" fill="#000"><path d="M22.966 21.006h-.003c-.37 0-.716.145-.978.408-.265.266-.411.62-.411.997v21.062c0 .772.627 1.402 1.397 1.404 3.249.007 8.691.689 12.446 4.643V27.48c0-.262-.067-.508-.192-.711-3.082-4.995-9.003-5.754-12.26-5.762zm28.46 22.467V22.41c0-.377-.146-.731-.41-.997a1.371 1.371 0 0 0-.978-.408h-.004c-3.255.008-9.177.767-12.259 5.762a1.353 1.353 0 0 0-.192.71V49.52c3.755-3.954 9.197-4.636 12.446-4.643a1.405 1.405 0 0 0 1.397-1.404z"/><path d="M54.605 25.864h-1.012v17.609c0 1.971-1.597 3.58-3.56 3.584-2.754.007-7.298.55-10.515 3.614 5.565-1.371 11.43-.48 14.774.287A1.4 1.4 0 0 0 56 49.589V27.268c0-.774-.626-1.404-1.395-1.404zM19.407 43.473v-17.61h-1.012c-.769 0-1.395.63-1.395 1.405v22.321a1.4 1.4 0 0 0 1.708 1.369c3.343-.767 9.21-1.659 14.774-.287-3.218-3.065-7.76-3.607-10.516-3.614-1.962-.005-3.559-1.613-3.559-3.584z"/></g><path d="M0 0h72v72H0z"/></g></svg>