<svg width="50" height="50" xmlns="http://www.w3.org/2000/svg"><path d="M26.23 12c5.387 0 9.77 4.356 9.77 9.71a9.558 9.558 0 0 1-1.05 4.38 9.814 9.814 0 0 1-2.498 3.105V38H21.233v-4.152H16.46v-5.24H14l2.46-7.032C16.534 16.284 20.888 12 26.23 12zm3.752 13.084a5.184 5.184 0 0 0 1.512-3.669c0-2.884-2.362-5.231-5.264-5.231-2.903 0-5.264 2.347-5.264 5.231 0 1.381.537 2.684 1.511 3.669l.071.071c.398.417.673.927.801 1.484v1.307a2.388 2.388 0 0 0 2.393 2.378h.975a2.388 2.388 0 0 0 2.393-2.378V26.64a3.181 3.181 0 0 1 .8-1.482l.072-.073zm-5.078 2.243h2.652v.62a.837.837 0 0 1-.838.833h-.976a.837.837 0 0 1-.838-.834v-.62zm1.326-6.43a.52.52 0 0 1 .52.518.52.52 0 0 1-1.041 0 .52.52 0 0 1 .52-.518zm0-3.169c2.045 0 3.71 1.654 3.71 3.687 0 .963-.37 1.872-1.043 2.563l-.017.017a4.73 4.73 0 0 0-1.136 1.787h-.737v-2.455a2.065 2.065 0 0 0 1.298-1.912 2.071 2.071 0 0 0-2.075-2.062 2.071 2.071 0 0 0-2.075 2.062c0 .864.537 1.605 1.298 1.912v2.455h-.737a4.731 4.731 0 0 0-1.136-1.787l-.016-.017a3.652 3.652 0 0 1-1.044-2.563c0-2.033 1.664-3.687 3.71-3.687z"/></svg>