<svg width="27" height="28" viewBox="0 0 27 28" xmlns="http://www.w3.org/2000/svg"><title>geography-home</title><path d="M24.71 6.775l-.404.128-2.151.192-.608.97-.441-.14-1.712-1.543-.248-.803-.333-.856-1.076-.965-1.27-.248-.029.58 1.244 1.214.608.717-.684.357-.557-.164-.834-.348.028-.673-1.095-.45-.363 1.582-1.104.25.11.883 1.437.277.249-1.41 1.187.175.551.323h.886l.605 1.213 1.607 1.63-.118.633-1.295-.165-2.238 1.13-1.612 1.933-.21.856h-.578l-1.077-.497-1.047.497.26 1.104.456-.525.8-.025-.055.992.663.194.663.745 1.082-.305 1.236.196 1.435.385.717.085 1.215 1.38 2.346 1.378-1.517 2.898-1.602.745-.607 1.656-2.317 1.547-.247.892c5.923-1.427 10.33-6.747 10.33-13.109a13.44 13.44 0 0 0-2.286-7.51zm-9.66 14.567l-.984-1.823.903-1.88-.903-.27-1.013-1.018-2.245-.503-.745-1.56v.926h-.328L7.8 12.591v-2.154L6.382 8.13l-2.252.401H2.614l-.764-.5.974-.772-.971.224A13.416 13.416 0 0 0 0 14.288c0 7.454 6.043 13.499 13.497 13.499.575 0 1.137-.05 1.694-.118l-.14-1.635s.62-2.43.62-2.512c-.002-.083-.621-2.18-.621-2.18zM5.016 5.14l2.397-.334L8.52 4.2l1.243.358 1.987-.11.681-1.07.993.163 2.41-.226.665-.732.936-.626 1.326.2.483-.073A13.46 13.46 0 0 0 3.087 5.695h.007l1.922-.555zm9.051-3.01l1.379-.76.885.512-1.281.975-1.224.123-.551-.357.792-.494zm-4.083.11l.609.254.796-.254.434.752-1.839.483-.884-.517c-.001 0 .864-.557.884-.718z"/></svg>