<svg xmlns="http://www.w3.org/2000/svg" width="20" height="17" viewBox="0 0 20 17"><path d="M12.116 15.534h-1.324V3.408h5.578l-2.362 3.748a.407.407 0 1 0 .688.434l2.05-3.251 2.049 3.25a.407.407 0 0 0 .688-.433L17.12 3.408h.03a.63.63 0 1 0 0-1.261h-4.64a2.065 2.065 0 0 0-1.101-.807 1.436 1.436 0 0 0-2.86 0c-.454.137-.84.426-1.102.807h-4.64a.63.63 0 1 0 0 1.26h.03L.472 7.157a.407.407 0 1 0 .689.434l2.05-3.251 2.048 3.25a.407.407 0 0 0 .689-.433L3.586 3.408h5.578v12.126H7.841c-.792 0-1.434.642-1.434 1.433h7.143c0-.791-.642-1.433-1.434-1.433z"/><path d="M6.205 8.212H.217A.217.217 0 0 0 0 8.429c0 1.77 1.44 3.21 3.211 3.21 1.77 0 3.211-1.44 3.211-3.21a.217.217 0 0 0-.217-.217zm13.535 0H13.75a.217.217 0 0 0-.217.217c0 1.77 1.44 3.21 3.212 3.21 1.77 0 3.21-1.44 3.21-3.21a.217.217 0 0 0-.216-.217z"/></svg>