<svg width="27" height="28" viewBox="0 0 27 28" xmlns="http://www.w3.org/2000/svg"><title>maths-home</title><path d="M15.569 15.042c.344-.208.75-.29 1.148-.29 2.707-.001 5.415-.002 8.121 0 .525-.006 1.056.166 1.449.518.446.38.693.957.713 1.539v8.35c-.02.584-.272 1.162-.721 1.543a2.15 2.15 0 0 1-1.328.511H16.6c-.685-.016-1.356-.369-1.724-.952-.246-.37-.343-.818-.338-1.258v-7.546c.002-.317-.013-.636.033-.95.09-.606.468-1.16.998-1.465zm1.047 2.826c0 .692-.002 1.385-.001 2.077 2.77 0 5.539 0 8.308-.002v-2.075h-8.307zm0 4.153l-.002 2.08 8.31-.003-.001-2.078h-8.307zM.712 15.27c.394-.353.925-.525 1.45-.519 2.725 0 5.45-.003 8.176.001.736-.012 1.466.385 1.833 1.028.238.39.302.856.292 1.306-.003 2.654 0 5.31-.002 7.965.002.436-.109.877-.357 1.239-.37.565-1.03.905-1.7.922H2.055C1.47 27.194.89 26.941.51 26.491c-.322-.364-.488-.845-.51-1.327v-8.351c.018-.583.266-1.16.712-1.542zm1.848 3.51c.733.734 1.469 1.466 2.202 2.202L2.56 23.185c.488.49.978.98 1.468 1.468l2.203-2.2c.735.732 1.468 1.468 2.203 2.2.49-.488.98-.978 1.468-1.467-.733-.735-1.468-1.469-2.2-2.204.732-.734 1.467-1.467 2.2-2.201l-1.47-1.47-2.2 2.202c-.735-.733-1.469-1.468-2.203-2.202l-1.47 1.47zM16.597.213h8.348c.584.02 1.162.271 1.542.72.324.364.491.846.513 1.33v8.35c-.014.766-.463 1.508-1.157 1.84-.373.195-.802.23-1.216.223-2.618-.002-5.237 0-7.855 0-.272-.004-.549-.023-.808-.113a2.068 2.068 0 0 1-1.313-1.312c-.13-.378-.113-.784-.113-1.178V2.532c-.005-.383.033-.777.204-1.125.324-.712 1.077-1.18 1.855-1.194zm.02 5.193c-.002.692-.002 1.385-.002 2.078 2.77 0 5.539 0 8.308-.002V5.406h-8.306zM2.049.213h8.35c.583.018 1.162.266 1.544.713.353.394.524.925.518 1.45.002 2.707.001 5.414 0 8.12.003.439-.103.883-.35 1.247a2.067 2.067 0 0 1-1.4.899c-.334.049-.671.03-1.007.033h-7.54c-.525.006-1.056-.166-1.45-.518-.447-.38-.694-.958-.714-1.54v-8.35C.02 1.784.188 1.3.512.936c.379-.449.955-.7 1.537-.722zM5.193 2.29v3.115H2.076v2.079h3.115v3.114H7.27V7.483h3.116V5.405H7.271V2.288H5.192z"/></svg>