<svg width="72" height="72" xmlns="http://www.w3.org/2000/svg"><g fill="none" fill-rule="evenodd"><path d="M31.247 31.531c.942.181 1.815.648 2.524 1.291.826-.16 1.685-.186 2.503.029 1.567.364 2.907 1.511 3.565 2.974.898.307 1.741.802 2.376 1.516 1.163 1.263 1.643 3.11 1.25 4.782-.051.139.018.268.101.377a5.263 5.263 0 0 1 .85 3.94 5.215 5.215 0 0 1-1.225 2.543.603.603 0 0 0-.167.393c-.186 1.73-1.319 3.314-2.875 4.079-1.272.707-2.373 1.747-3.068 3.035-.55.958-.857 2.034-1.055 3.116-.666.003-1.331.005-1.997-.004v-6.007c.02-1.014.201-2.082.839-2.901.567-.775 1.526-1.084 2.195-1.749.922.314 1.708.985 2.2 1.825.106.197.308.298.514.362.353-.06.678-.401.526-.773-.529-1.026-1.433-1.82-2.465-2.316.234-.428.466-.863.585-1.339a6.054 6.054 0 0 0 .02-2.863 4.276 4.276 0 0 0-.073-.087c1.14-.275 2.248-.82 3.013-1.732.262-.312.024-.852-.382-.872-.253-.043-.45.143-.61.31-.64.659-1.508 1.072-2.411 1.214-.572-1.025-1.46-1.877-2.539-2.35-.493-.232-1.029-.343-1.563-.434.115-.801.427-1.582.964-2.195.135-.157.298-.301.378-.498a.562.562 0 0 0-.474-.705c-.202-.032-.39.078-.52.224a5.301 5.301 0 0 0-1.45 3.103c-1.081-.139-2.108-.702-2.777-1.569a4.184 4.184 0 0 1-.898-2.34c-.018-.258-.018-.573-.266-.727-.302-.24-.804-.019-.849.359-.044.386.033.774.085 1.157a4.238 4.238 0 0 1-2.46 1.012c-1.1.076-2.234-.294-3.054-1.037-.154-.127-.29-.298-.494-.341-.25-.058-.513.103-.62.327-.064.198-.049.44.108.592.437.456.968.82 1.539 1.09-.094 1.34-.896 2.588-2.048 3.265-.666-.997-1.66-1.78-2.804-2.145-.353-.143-.79.134-.756.526-.018.29.232.488.486.558.78.258 1.46.773 1.965 1.416l.005.113c-.4.087-.807.122-1.216.126-1.322.031-2.633.566-3.575 1.501a.558.558 0 0 0-.147.596c.085.222.313.318.522.387.374-.099.609-.421.919-.626a4.155 4.155 0 0 1 2.374-.748c1.435.022 2.874-.56 3.872-1.596a5.27 5.27 0 0 0 1.483-3c1.074.2 2.219.142 3.227-.306.372-.15.704-.376 1.055-.566.331.766.872 1.425 1.507 1.96a5.51 5.51 0 0 0-1.148 2.758c-1.154-.121-2.368.012-3.384.605-.314.174-.363.661-.073.88.19.184.479.167.693.037.844-.43 1.824-.548 2.752-.378.14 1.05.546 2.074 1.24 2.883.156.174.314.422.58.408.321.051.62-.242.6-.56-.002-.214-.168-.364-.29-.517a4.258 4.258 0 0 1-1.033-2.566 4.267 4.267 0 0 1 1.004-2.94 5.631 5.631 0 0 0 2.295.555c.72.024 1.45.162 2.082.521 1.336.7 2.226 2.181 2.206 3.691-1.091-.284-2.284-.224-3.326.215-.389.136-.467.71-.132.948.21.195.502.102.736.01.83-.304 1.75-.309 2.596-.066-.172 1.13-1.06 1.973-1.997 2.536-.923.538-1.664 1.386-2.03 2.395-.293.759-.406 1.576-.4 2.387-.009 1.995-.003 3.99-.004 5.985-.637.02-1.274.011-1.911.005-.003-1.903.006-3.806-.005-5.708a5.55 5.55 0 0 0-1.633-3.838c-.451-.461-1.016-.794-1.61-1.04-.721-.307-1.347-.793-1.908-1.331-.166.062-.308.17-.463.254-1.241.688-2.767.816-4.116.388-.49-.146-.931-.404-1.374-.652a5.323 5.323 0 0 1-3.825.792 5.328 5.328 0 0 1-2.958-1.557 5.38 5.38 0 0 1-1.497-3.114c-.162-1.36.197-2.783 1.02-3.882a5.4 5.4 0 0 1 1.666-1.482c.175-.098.363-.172.528-.288.141-.254.169-.554.278-.822.28-.657.664-1.28 1.182-1.777 1.052-1.09 2.605-1.651 4.11-1.548.781-1.128 1.998-1.95 3.347-2.21 1.188-.212 2.454-.076 3.516.518 1.157-.763 2.616-1.057 3.974-.767zM57.6 22.395h-1.833a.684.684 0 0 1-.65-.434.684.684 0 0 1 .152-.766l1.296-1.294c.19-.19.295-.444.295-.713 0-.27-.105-.522-.295-.713l-1.652-1.65a1.034 1.034 0 0 0-1.427 0l-1.296 1.294a.681.681 0 0 1-.49.208.733.733 0 0 1-.495-.195.679.679 0 0 1-.216-.51v-1.831a1.01 1.01 0 0 0-1.009-1.008h-2.336a1.01 1.01 0 0 0-1.009 1.008v1.831a.701.701 0 0 1-1.201.497l-1.296-1.294a1.034 1.034 0 0 0-1.427 0l-1.652 1.65c-.19.19-.295.444-.295.713 0 .269.105.522.295.713l1.296 1.294a.684.684 0 0 1 .153.766.683.683 0 0 1-.65.434h-1.833a1.01 1.01 0 0 0-1.009 1.008v2.334a1.01 1.01 0 0 0 1.009 1.008h1.833c.294 0 .537.162.65.434a.684.684 0 0 1-.152.766L41.06 29.24a1.002 1.002 0 0 0 0 1.425l1.652 1.65a1.033 1.033 0 0 0 1.427 0l1.295-1.294a.702.702 0 0 1 1.202.497v1.831c0 .556.452 1.008 1.008 1.008h2.336a1.01 1.01 0 0 0 1.009-1.008v-1.83a.701.701 0 0 1 1.201-.498l1.296 1.295c.382.381 1.046.38 1.427 0l1.652-1.65c.19-.19.295-.444.295-.714a1 1 0 0 0-.295-.712l-1.296-1.295a.684.684 0 0 1-.153-.766.684.684 0 0 1 .65-.434H57.6a1.01 1.01 0 0 0 1.008-1.008v-2.334a1.01 1.01 0 0 0-1.008-1.008zm-6.248 2.175a2.542 2.542 0 0 1-2.54 2.538c-1.4 0-2.54-1.139-2.54-2.538a2.542 2.542 0 0 1 2.54-2.537c1.4 0 2.54 1.138 2.54 2.537zm4.793 17.508h-.917a.342.342 0 0 1-.325-.216.342.342 0 0 1 .076-.384l.648-.647a.5.5 0 0 0 0-.713l-.826-.825a.517.517 0 0 0-.713 0l-.648.647a.34.34 0 0 1-.245.104.366.366 0 0 1-.248-.097.34.34 0 0 1-.108-.255v-.916a.505.505 0 0 0-.504-.504h-1.168a.505.505 0 0 0-.504.504v.916a.35.35 0 0 1-.601.248l-.648-.647a.517.517 0 0 0-.714 0l-.825.825a.5.5 0 0 0 0 .713l.648.647a.342.342 0 0 1 .076.384.342.342 0 0 1-.325.216h-.917a.505.505 0 0 0-.504.504v1.167c0 .278.226.504.504.504h.917c.147 0 .268.081.325.217a.342.342 0 0 1-.076.384l-.648.647a.5.5 0 0 0 0 .713l.826.825c.19.19.522.19.713 0l.648-.647a.35.35 0 0 1 .6.248v.916c0 .277.227.504.505.504h1.168a.505.505 0 0 0 .504-.504v-.916a.35.35 0 0 1 .601-.248l.648.647c.19.19.523.19.713 0l.826-.825a.5.5 0 0 0 0-.713l-.648-.647a.342.342 0 0 1-.076-.384.342.342 0 0 1 .325-.217h.917a.505.505 0 0 0 .504-.504v-1.167a.505.505 0 0 0-.504-.504zm-3.124 1.088a1.27 1.27 0 0 1-2.54 0 1.27 1.27 0 0 1 2.54 0z" fill-rule="nonzero" fill="#000"/><path d="M0 0h72v72H0z"/></g></svg>