<svg width="72" height="72" xmlns="http://www.w3.org/2000/svg"><g fill="none" fill-rule="evenodd"><g fill-rule="nonzero"><path d="M36.1 23.423c-6.411 0-11.608 5.271-11.608 11.773 0 5.217 3.348 9.633 7.98 11.18v7.216h1.452V55.8h4.352v-2.208h1.451v-7.217c4.633-1.546 7.98-5.962 7.98-11.179 0-6.502-5.196-11.773-11.607-11.773zm0-6.623a.73.73 0 0 0-.725.736v2.943a.73.73 0 0 0 .725.736.73.73 0 0 0 .725-.736v-2.943a.73.73 0 0 0-.725-.736zm17.412 17.66H50.61a.73.73 0 0 0-.726.736.73.73 0 0 0 .726.736h2.902a.73.73 0 0 0 .725-.736.73.73 0 0 0-.725-.736zm-31.922 0h-2.902a.73.73 0 0 0-.725.736.73.73 0 0 0 .725.736h2.902a.73.73 0 0 0 .726-.736.73.73 0 0 0-.726-.736zM47.9 22.188l-2.052 2.08a.742.742 0 0 0 0 1.041.718.718 0 0 0 1.026 0l2.051-2.08a.742.742 0 0 0 0-1.041.718.718 0 0 0-1.026 0zM25.326 45.083l-2.051 2.081a.742.742 0 0 0 0 1.04.718.718 0 0 0 1.026 0l2.051-2.08a.742.742 0 0 0 0-1.04.717.717 0 0 0-1.026 0zm21.548 0a.717.717 0 0 0-1.026 0 .742.742 0 0 0 0 1.04l2.051 2.082a.718.718 0 0 0 1.026 0 .742.742 0 0 0 0-1.04l-2.051-2.082zM24.3 22.188a.717.717 0 0 0-1.025 0 .742.742 0 0 0 0 1.04l2.051 2.081a.718.718 0 0 0 1.026 0 .742.742 0 0 0 0-1.04l-2.051-2.081z" fill="#000"/><path d="M28.12 35.932a.73.73 0 0 1-.726-.736c0-4.869 3.905-8.83 8.706-8.83a.73.73 0 0 1 .725.736.73.73 0 0 1-.725.736c-4 0-7.255 3.3-7.255 7.358a.73.73 0 0 1-.725.736z" fill="#FFAF82"/><path fill="#000" d="M32.473 48.442v5.15h1.45V55.8h4.353v-2.208h1.451v-5.15z"/></g><path d="M0 0h72v72H0z"/></g></svg>