<svg width="38" height="36" viewBox="0 0 38 36" xmlns="http://www.w3.org/2000/svg"><title>Combined Shape</title><path d="M25.573 18.4a6.6 6.6 0 0 1-10.025 5.026l-2.431 4.211a4.2 4.2 0 1 1-2.291-.831l2.904-5.032A6.57 6.57 0 0 1 12.4 17.8c0-1.46.475-2.81 1.278-3.904l-2.943-5.098-.135.002a4.2 4.2 0 1 1 3.283-1.58l2.416 4.556A6.603 6.603 0 0 1 25.352 16h4.252a4.2 4.2 0 1 1-.361 2.4h-3.67zm-24.771.9a3 3 0 1 1 5.196-3 3 3 0 0 1-5.196 3zm22.8-13.2a3 3 0 1 1 5.196-3 3 3 0 0 1-5.196 3zm0 26.4a3 3 0 1 1 5.196-3 3 3 0 0 1-5.196 3z" fill-rule="evenodd"/></svg>