<svg width="71" height="20" viewBox="0 0 71 20" xmlns="http://www.w3.org/2000/svg"><title>logo</title><g fill="none" fill-rule="evenodd"><path d="M28.838 16.456c-1.936 0 0 0 0 0-1.936 0-2.958-.954-2.958-2.76V8.49h-1.74V6.187h1.74V3.448h2.762v2.739h2.132V8.49h-2.132v4.501c0 .644.348 1.12.957 1.12.414 0 .805-.144.957-.31l.588 2.012c-.414.353-1.153.643-2.306.643zm24.207-5.274c0 3.333-1.964 5.258-4.671 5.258-1.244 0-2.38-.497-3.253-1.532V20H42.35V6.194h2.772v1.262c.808-.973 1.965-1.51 3.253-1.51 2.707 0 4.671 1.903 4.671 5.236zm-5.564 2.938c1.59 0 2.678-1.184 2.678-2.93 0-1.725-1.088-2.91-2.678-2.91-.892 0-1.894.479-2.373 1.144v3.533c.457.644 1.48 1.163 2.373 1.163zm12.141 2.32c-1.244 0 0 0 0 0-1.244 0-2.38-.497-3.252-1.532V20h-2.773V6.194h2.773v1.262c.807-.973 1.964-1.51 3.252-1.51 2.707 0 4.672 1.903 4.672 5.236 0 3.333-1.965 5.258-4.672 5.258zm-.893-2.32c1.59 0 2.678-1.184 2.678-2.93 0-1.725-1.088-2.91-2.678-2.91-.892 0-1.894.479-2.373 1.144v3.533c.457.644 1.48 1.163 2.373 1.163zm8.921 2.094h-2.762V6.194h2.762v1.349c.762-.872 2.045-1.598 3.35-1.598v2.573a3.693 3.693 0 0 0-.761-.063c-.914 0-2.132.498-2.589 1.141v6.618zm-31.572.484c-3.474 0 0 0 0 0-3.474 0-5.571-2.426-5.571-5.266s2.097-5.245 5.57-5.245c3.496 0 5.593 2.405 5.593 5.245 0 2.84-2.097 5.266-5.592 5.266zm0-2.336c1.745 0 2.706-1.35 2.706-2.93 0-1.559-.96-2.91-2.706-2.91-1.725 0-2.685 1.351-2.685 2.91 0 1.58.96 2.93 2.685 2.93z" fill="#FFF"/><circle fill="#FFF" cx="10.5" cy="10.5" r="8.5"/><path d="M12.067.221c2.225.478 4.265 1.77 5.673 3.567a10.008 10.008 0 0 1 1.927 4.11 10.37 10.37 0 0 1-.285 5.271c-.65 1.934-1.889 3.67-3.528 4.877-1.393 1.04-3.058 1.714-4.785 1.892-1.82.2-3.704-.08-5.36-.879a9.968 9.968 0 0 1-3.753-3.09A10.19 10.19 0 0 1 .692 13.7c-.696-1.745-.855-3.688-.532-5.534A9.894 9.894 0 0 1 1.943 4.05 9.995 9.995 0 0 1 6.26.696 9.761 9.761 0 0 1 9.228.021c.95-.057 1.908-.002 2.839.2zM3.505 9.4c-.32.307-.322.877-.004 1.185.392.395.783.79 1.178 1.183a.842.842 0 0 0 1.17-.015c.808-.814 1.623-1.621 2.424-2.443a.6.6 0 0 1 .011.134v6.224c0 .11-.006.22.016.33a.846.846 0 0 0 .81.668c.553.002 1.106.002 1.66 0 .338.005.653-.23.774-.544.068-.176.05-.369.053-.553.002-2.088-.003-4.175.003-6.263.78.792 1.566 1.576 2.349 2.365.083.084.167.169.27.23a.809.809 0 0 0 .855-.028c.103-.073.19-.166.278-.255l.895-.899c.099-.1.206-.198.273-.324.166-.316.116-.743-.144-.994-1.937-1.949-3.876-3.895-5.813-5.844-.308-.356-.913-.365-1.23-.016C7.39 5.493 5.446 7.445 3.505 9.4z" fill="#55BBEA"/></g></svg>